# xmcd
#
# Track frame offsets: 
#        150
#        20025
#        35440
#        74075
#        94070
#        117340
#        137300
#        192555
#        212830
#        225850
#        237255
#        258260
#        277870
#
# Disc length: 3977 seconds
#
# Revision: 2
# Processed by: cddbd v1.5.2PL0 Copyright (c) Steve Scherf et al.
# Submitted via: ExactAudioCopyFreeDBPlugin 1.0
#
DISCID=b40f870d
DTITLE=Amos Garrett - Off The Floor Live!
DYEAR=1996
DGENRE=Country
TTITLE0=Walkin' Blues
TTITLE1=Just Like A Fish
TTITLE2=Willie And The Hand Jive
TTITLE3=Goose Grease
TTITLE4=That's What A Little Dream Can Go
TTITLE5=Looking For A Sign
TTITLE6=Conversation With John Lee (Hook's Boogie)
TTITLE7=Sleepwalk
TTITLE8=Maybe It's Because Of Love
TTITLE9=Wrong Lake To Catch A Fish
TTITLE10=Bad Bad Whiskey
TTITLE11=Buried Alive In The Blues
TTITLE12=Grasshoppers In My Pillow
EXTD=
EXTT0=
EXTT1=
EXTT2=
EXTT3=
EXTT4=
EXTT5=
EXTT6=
EXTT7=
EXTT8=
EXTT9=
EXTT10=
EXTT11=
EXTT12=
PLAYORDER=
